<svg width="55" height="48" viewBox="0 0 55 48" fill="none" xmlns="http://www.w3.org/2000/svg">
<g style="mix-blend-mode:multiply" filter="url(#filter0_d_4_14)">
<g style="mix-blend-mode:lighten" filter="url(#filter1_b_4_14)">
<path d="M37.2083 19.0532C37.4359 20.2359 37.4319 21.4168 37.1963 22.5957C36.9577 23.7587 36.53 24.8404 35.9133 25.8407C35.3092 26.8206 34.5334 27.6805 33.5858 28.4205C32.654 29.1561 31.6086 29.6879 30.4497 30.0158L9.98844 35.8058L9.04284 30.8911L29.5041 25.1011C29.9895 24.9637 30.4331 24.7371 30.8347 24.4212C31.2363 24.1053 31.5693 23.733 31.8336 23.3043C32.0979 22.8756 32.2825 22.4189 32.3874 21.9342C32.4892 21.4335 32.4909 20.9274 32.3925 20.4159C32.2972 19.9205 32.1125 19.4756 31.8385 19.0812C31.5644 18.6869 31.2307 18.3684 30.8372 18.1258C30.4438 17.8833 30.0093 17.7281 29.5339 17.6604C29.0554 17.5767 28.5735 17.6036 28.088 17.741L14.8387 21.4902C13.8364 21.7738 12.8598 21.8479 11.909 21.7125C10.9582 21.5771 10.0908 21.2748 9.30697 20.8056C8.53572 20.316 7.87605 19.6769 7.32798 18.8882C6.7799 18.0995 6.40746 17.1937 6.21066 16.1708C6.01385 15.1479 6.01727 14.1358 6.22093 13.1344C6.42459 12.133 6.78443 11.2138 7.30046 10.3768C7.82907 9.51936 8.49498 8.77477 9.2982 8.143C10.1014 7.51124 11.0042 7.05354 12.0065 6.76992L31.2696 1.31894L32.2106 6.20971L12.9475 11.6607C12.2741 11.8512 11.7486 12.2527 11.371 12.8652C11.006 13.4572 10.8911 14.1048 11.0264 14.8081C11.1587 15.4954 11.498 16.0145 12.0444 16.3654C12.6034 16.696 13.2197 16.766 13.8931 16.5754L27.1424 12.8262C28.3013 12.4983 29.4328 12.414 30.5369 12.5735C31.6566 12.7285 32.6677 13.0913 33.5701 13.6617C34.4881 14.2277 35.2664 14.9681 35.9048 15.8829C36.5432 16.7977 36.9777 17.8545 37.2083 19.0532Z" fill="#DC965A"/>
<path d="M37.1963 22.5957L38.1548 22.7342L38.1559 22.7286L37.1963 22.5957ZM35.9133 25.8407L35.0993 25.3388L35.9133 25.8407ZM33.5858 28.4205L33.0361 27.6229L33.0316 27.6264L33.5858 28.4205ZM9.98844 35.8058L9.02622 36.0781L9.21516 37.0601L10.1774 36.7878L9.98844 35.8058ZM9.04284 30.8911L8.85391 29.9091L7.89169 30.1814L8.08062 31.1634L9.04284 30.8911ZM30.8347 24.4212L30.282 23.6259L30.282 23.6259L30.8347 24.4212ZM32.3874 21.9342L33.3435 22.0842L33.3462 22.0707L32.3874 21.9342ZM29.5339 17.6604L29.3001 18.6658L29.3143 18.6682L29.3286 18.6703L29.5339 17.6604ZM9.30697 20.8056L8.75042 21.6864L8.76014 21.6926L8.77003 21.6985L9.30697 20.8056ZM7.30046 10.3768L6.48647 9.87493L7.30046 10.3768ZM31.2696 1.31894L32.2318 1.04666L32.0429 0.0646672L31.0807 0.33695L31.2696 1.31894ZM32.2106 6.20971L32.3996 7.1917L33.3618 6.91941L33.1728 5.93742L32.2106 6.20971ZM11.371 12.8652L10.557 12.3633L11.371 12.8652ZM12.0444 16.3654L11.4839 17.2437L11.4976 17.2525L11.5115 17.2607L12.0444 16.3654ZM30.5369 12.5735L30.3297 13.5831L30.335 13.5838L30.5369 12.5735ZM33.5701 13.6617L33.0149 14.5434L33.0233 14.5486L33.5701 13.6617ZM35.9048 15.8829L35.0958 16.5215L35.9048 15.8829ZM36.2461 19.3255C36.4491 20.3808 36.4443 21.4239 36.2367 22.4629L38.1559 22.7286C38.4194 21.4097 38.4226 20.0911 38.1705 18.7809L36.2461 19.3255ZM36.2379 22.4573C36.0249 23.4953 35.6453 24.4532 35.0993 25.3388L36.7273 26.3425C37.4147 25.2275 37.8905 24.0222 38.1548 22.7342L36.2379 22.4573ZM35.0993 25.3388C34.5693 26.1985 33.8853 26.9597 33.0361 27.6229L34.1356 29.2182C35.1815 28.4014 36.049 27.4426 36.7273 26.3425L35.0993 25.3388ZM33.0316 27.6264C32.2148 28.2711 31.2948 28.7412 30.2607 29.0338L30.6386 30.9978C31.9223 30.6346 33.0931 30.0411 34.14 29.2147L33.0316 27.6264ZM30.2607 29.0338L9.7995 34.8238L10.1774 36.7878L30.6386 30.9978L30.2607 29.0338ZM10.9507 35.5335L10.0051 30.6188L8.08062 31.1634L9.02622 36.0781L10.9507 35.5335ZM9.23178 31.8731L29.693 26.0831L29.3151 24.1191L8.85391 29.9091L9.23178 31.8731ZM29.693 26.0831C30.3064 25.9095 30.8741 25.6202 31.3874 25.2165L30.282 23.6259C29.9921 23.8539 29.6727 24.0179 29.3151 24.1191L29.693 26.0831ZM31.3874 25.2165C31.8893 24.8217 32.3119 24.3506 32.6476 23.8061L31.0196 22.8025C30.8267 23.1154 30.5833 23.3889 30.282 23.6259L31.3874 25.2165ZM32.6476 23.8061C32.9786 23.2692 33.2116 22.6933 33.3434 22.0842L31.4314 21.7842C31.3534 22.1445 31.2171 22.482 31.0196 22.8025L32.6476 23.8061ZM33.3462 22.0707C33.4773 21.4264 33.4774 20.7813 33.3547 20.1437L31.4303 20.6882C31.5044 21.0735 31.5012 21.4405 31.4285 21.7976L33.3462 22.0707ZM33.3547 20.1437C33.2343 19.5176 32.9987 18.9481 32.6485 18.4441L31.0285 19.7183C31.2263 20.003 31.3601 20.3233 31.4303 20.6882L33.3547 20.1437ZM32.6485 18.4441C32.306 17.9513 31.8837 17.547 31.384 17.2389L30.2904 19.0128C30.5777 19.1898 30.8229 19.4225 31.0285 19.7183L32.6485 18.4441ZM31.384 17.2389C30.8843 16.9309 30.3335 16.7352 29.7393 16.6506L29.3286 18.6703C29.6852 18.7211 30.0032 18.8357 30.2904 19.0128L31.384 17.2389ZM29.7678 16.6551C29.1502 16.5471 28.5239 16.5822 27.899 16.759L28.2769 18.7229C28.623 18.625 28.9607 18.6064 29.3001 18.6658L29.7678 16.6551ZM27.899 16.759L14.6497 20.5082L15.0276 22.4722L28.2769 18.7229L27.899 16.759ZM14.6497 20.5082C13.771 20.7568 12.9288 20.8186 12.1144 20.7026L11.7036 22.7223C12.7908 22.8772 13.9017 22.7908 15.0276 22.4722L14.6497 20.5082ZM12.1144 20.7026C11.2771 20.5834 10.5229 20.3191 9.84392 19.9127L8.77003 21.6985C9.65877 22.2305 10.6392 22.5708 11.7036 22.7223L12.1144 20.7026ZM9.86353 19.9248C9.19549 19.5008 8.6206 18.9456 8.13797 18.2511L6.51798 19.5253C7.1315 20.4082 7.87595 21.1313 8.75042 21.6864L9.86353 19.9248ZM8.13797 18.2511C7.6685 17.5756 7.34541 16.7953 7.17287 15.8986L5.24844 16.4431C5.46952 17.5922 5.89131 18.6235 6.51798 19.5253L8.13797 18.2511ZM7.17287 15.8986C7.00034 15.0018 7.00532 14.1287 7.17978 13.2709L5.26209 12.9978C5.02922 14.1428 5.02736 15.2941 5.24844 16.4431L7.17287 15.8986ZM7.17978 13.2709C7.35865 12.3914 7.67148 11.5971 8.11445 10.8786L6.48647 9.87493C5.89739 10.8304 5.49053 11.8746 5.26209 12.9978L7.17978 13.2709ZM8.11445 10.8786C8.57169 10.137 9.14802 9.49118 9.8509 8.93834L8.74551 7.34767C7.84195 8.05835 7.08645 8.90176 6.48647 9.87493L8.11445 10.8786ZM9.8509 8.93834C10.5389 8.39718 11.3167 8.00055 12.1954 7.75191L11.8176 5.78793C10.6916 6.10653 9.66392 6.6253 8.74551 7.34767L9.8509 8.93834ZM12.1954 7.75191L31.4586 2.30093L31.0807 0.33695L11.8176 5.78793L12.1954 7.75191ZM30.3074 1.59122L31.2484 6.48199L33.1728 5.93742L32.2318 1.04666L30.3074 1.59122ZM32.0217 5.22772L12.7585 10.6787L13.1364 12.6427L32.3996 7.1917L32.0217 5.22772ZM12.7585 10.6787C11.8338 10.9404 11.0818 11.5121 10.557 12.3633L12.185 13.367C12.4153 12.9934 12.7143 12.7621 13.1364 12.6427L12.7585 10.6787ZM10.557 12.3633C10.0357 13.2089 9.88285 14.1377 10.0642 15.0804L11.9887 14.5358C11.8994 14.072 11.9763 13.7055 12.185 13.367L10.557 12.3633ZM10.0642 15.0804C10.2438 16.0137 10.7218 16.7542 11.4839 17.2437L12.6049 15.4872C12.2742 15.2747 12.0736 14.977 11.9887 14.5358L10.0642 15.0804ZM11.5115 17.2607C12.2911 17.7217 13.1675 17.8162 14.082 17.5574L13.7041 15.5934C13.2718 15.7158 12.9157 15.6703 12.5773 15.4702L11.5115 17.2607ZM14.082 17.5574L27.3313 13.8082L26.9534 11.8442L13.7041 15.5934L14.082 17.5574ZM27.3313 13.8082C28.3654 13.5156 29.362 13.4433 30.3297 13.5831L30.744 11.5639C29.5036 11.3847 28.2372 11.481 26.9534 11.8442L27.3313 13.8082ZM30.335 13.5838C31.334 13.7221 32.2239 14.0434 33.0149 14.5434L34.1252 12.78C33.1114 12.1391 31.9792 11.7349 30.7387 11.5632L30.335 13.5838ZM33.0233 14.5486C33.8361 15.0497 34.526 15.705 35.0958 16.5215L36.7137 15.2443C36.0067 14.2312 35.1402 13.4057 34.1169 12.7748L33.0233 14.5486ZM35.0958 16.5215C35.6544 17.3219 36.0396 18.2523 36.2461 19.3255L38.1705 18.7809C37.9158 17.4567 37.432 16.2736 36.7137 15.2443L35.0958 16.5215Z" fill="black"/>
</g>
<g style="mix-blend-mode:lighten" filter="url(#filter2_b_4_14)">
<path d="M45.7556 14.8661L40.4262 35.3718L36.8139 36.4524L23.0009 21.6731L26.6904 20.5694L37.8118 32.5765L42.066 15.9698L45.7556 14.8661Z" fill="#DC965A"/>
<path d="M45.7556 14.8661L46.7081 15.0852L47.1438 13.4085L45.5201 13.8943L45.7556 14.8661ZM40.4262 35.3718L40.6617 36.3437L41.227 36.1746L41.3787 35.5909L40.4262 35.3718ZM36.8139 36.4524L36.0873 37.1713L36.4823 37.5939L37.0494 37.4243L36.8139 36.4524ZM23.0009 21.6731L22.7654 20.7012L21.1467 21.1854L22.2744 22.3919L23.0009 21.6731ZM26.6904 20.5694L27.4199 19.8536L27.0248 19.427L26.455 19.5975L26.6904 20.5694ZM37.8118 32.5765L37.0824 33.2923L38.3002 34.6071L38.7652 32.792L37.8118 32.5765ZM42.066 15.9698L41.8306 14.998L41.2629 15.1678L41.1126 15.7544L42.066 15.9698ZM44.8031 14.6471L39.4737 35.1528L41.3787 35.5909L46.7081 15.0852L44.8031 14.6471ZM40.1907 34.3999L36.5784 35.4806L37.0494 37.4243L40.6617 36.3437L40.1907 34.3999ZM37.5404 35.7336L23.7275 20.9542L22.2744 22.3919L36.0873 37.1713L37.5404 35.7336ZM23.2364 22.645L26.9259 21.5413L26.455 19.5975L22.7654 20.7012L23.2364 22.645ZM25.961 21.2852L37.0824 33.2923L38.5412 31.8608L27.4199 19.8536L25.961 21.2852ZM38.7652 32.792L43.0195 16.1853L41.1126 15.7544L36.8584 32.3611L38.7652 32.792ZM42.3015 16.9417L45.9911 15.838L45.5201 13.8943L41.8306 14.998L42.3015 16.9417Z" fill="black"/>
</g>
</g>
<defs>
<filter id="filter0_d_4_14" x="0.794563" y="0.640892" width="53.2337" height="46.6655" filterUnits="userSpaceOnUse" color-interpolation-filters="sRGB">
<feFlood flood-opacity="0" result="BackgroundImageFix"/>
<feColorMatrix in="SourceAlpha" type="matrix" values="0 0 0 0 0 0 0 0 0 0 0 0 0 0 0 0 0 0 127 0" result="hardAlpha"/>
<feOffset dy="4"/>
<feGaussianBlur stdDeviation="2"/>
<feComposite in2="hardAlpha" operator="out"/>
<feColorMatrix type="matrix" values="0 0 0 0 0 0 0 0 0 0 0 0 0 0 0 0 0 0 0.25 0"/>
<feBlend mode="normal" in2="BackgroundImageFix" result="effect1_dropShadow_4_14"/>
<feBlend mode="normal" in="SourceGraphic" in2="effect1_dropShadow_4_14" result="shape"/>
</filter>
<filter id="filter1_b_4_14" x="0.794563" y="-3.35911" width="42.0651" height="43.1649" filterUnits="userSpaceOnUse" color-interpolation-filters="sRGB">
<feFlood flood-opacity="0" result="BackgroundImageFix"/>
<feGaussianBlur in="BackgroundImage" stdDeviation="2"/>
<feComposite in2="SourceAlpha" operator="in" result="effect1_backgroundBlur_4_14"/>
<feBlend mode="normal" in="SourceGraphic" in2="effect1_backgroundBlur_4_14" result="shape"/>
</filter>
<filter id="filter2_b_4_14" x="19.0009" y="10.8661" width="35.0273" height="32.4402" filterUnits="userSpaceOnUse" color-interpolation-filters="sRGB">
<feFlood flood-opacity="0" result="BackgroundImageFix"/>
<feGaussianBlur in="BackgroundImage" stdDeviation="2"/>
<feComposite in2="SourceAlpha" operator="in" result="effect1_backgroundBlur_4_14"/>
<feBlend mode="normal" in="SourceGraphic" in2="effect1_backgroundBlur_4_14" result="shape"/>
</filter>
</defs>
</svg>
